G04 #@! TF.GenerationSoftware,KiCad,Pcbnew,7.0.11+1*
G04 #@! TF.CreationDate,2024-06-02T11:35:51+02:00*
G04 #@! TF.ProjectId,prg_pcb,7072675f-7063-4622-9e6b-696361645f70,rev?*
G04 #@! TF.SameCoordinates,Original*
G04 #@! TF.FileFunction,Legend,Top*
G04 #@! TF.FilePolarity,Positive*
%FSLAX46Y46*%
G04 Gerber Fmt 4.6, Leading zero omitted, Abs format (unit mm)*
G04 Created by KiCad (PCBNEW 7.0.11+1) date 2024-06-02 11:35:51*
%MOMM*%
%LPD*%
G01*
G04 APERTURE LIST*
G04 Aperture macros list*
%AMRoundRect*
0 Rectangle with rounded corners*
0 $1 Rounding radius*
0 $2 $3 $4 $5 $6 $7 $8 $9 X,Y pos of 4 corners*
0 Add a 4 corners polygon primitive as box body*
4,1,4,$2,$3,$4,$5,$6,$7,$8,$9,$2,$3,0*
0 Add four circle primitives for the rounded corners*
1,1,$1+$1,$2,$3*
1,1,$1+$1,$4,$5*
1,1,$1+$1,$6,$7*
1,1,$1+$1,$8,$9*
0 Add four rect primitives between the rounded corners*
20,1,$1+$1,$2,$3,$4,$5,0*
20,1,$1+$1,$4,$5,$6,$7,0*
20,1,$1+$1,$6,$7,$8,$9,0*
20,1,$1+$1,$8,$9,$2,$3,0*%
%AMFreePoly0*
4,1,6,0.500000,-0.850000,-0.500000,-0.850000,-0.500000,0.550000,-0.200000,0.850000,0.500000,0.850000,0.500000,-0.850000,0.500000,-0.850000,$1*%
G04 Aperture macros list end*
%ADD10C,0.150000*%
%ADD11C,0.120000*%
%ADD12C,0.152400*%
%ADD13C,0.508000*%
%ADD14RoundRect,0.249999X0.525001X-0.525001X0.525001X0.525001X-0.525001X0.525001X-0.525001X-0.525001X0*%
%ADD15C,1.550000*%
%ADD16RoundRect,0.250000X0.450000X-0.350000X0.450000X0.350000X-0.450000X0.350000X-0.450000X-0.350000X0*%
%ADD17RoundRect,0.250000X-0.350000X-0.450000X0.350000X-0.450000X0.350000X0.450000X-0.350000X0.450000X0*%
%ADD18R,1.600000X2.000000*%
%ADD19O,1.600000X2.000000*%
%ADD20RoundRect,0.250000X0.475000X-0.337500X0.475000X0.337500X-0.475000X0.337500X-0.475000X-0.337500X0*%
%ADD21R,1.397000X0.711200*%
%ADD22R,0.550000X0.250000*%
%ADD23FreePoly0,0.000000*%
%ADD24RoundRect,0.250000X0.350000X0.450000X-0.350000X0.450000X-0.350000X-0.450000X0.350000X-0.450000X0*%
%ADD25RoundRect,0.250000X0.337500X0.475000X-0.337500X0.475000X-0.337500X-0.475000X0.337500X-0.475000X0*%
%ADD26R,1.600000X1.600000*%
%ADD27C,1.600000*%
G04 APERTURE END LIST*
D10*
X137614819Y-118371857D02*
X137138628Y-118705190D01*
X137614819Y-118943285D02*
X136614819Y-118943285D01*
X136614819Y-118943285D02*
X136614819Y-118562333D01*
X136614819Y-118562333D02*
X136662438Y-118467095D01*
X136662438Y-118467095D02*
X136710057Y-118419476D01*
X136710057Y-118419476D02*
X136805295Y-118371857D01*
X136805295Y-118371857D02*
X136948152Y-118371857D01*
X136948152Y-118371857D02*
X137043390Y-118419476D01*
X137043390Y-118419476D02*
X137091009Y-118467095D01*
X137091009Y-118467095D02*
X137138628Y-118562333D01*
X137138628Y-118562333D02*
X137138628Y-118943285D01*
X137614819Y-117419476D02*
X137614819Y-117990904D01*
X137614819Y-117705190D02*
X136614819Y-117705190D01*
X136614819Y-117705190D02*
X136757676Y-117800428D01*
X136757676Y-117800428D02*
X136852914Y-117895666D01*
X136852914Y-117895666D02*
X136900533Y-117990904D01*
X136614819Y-116800428D02*
X136614819Y-116705190D01*
X136614819Y-116705190D02*
X136662438Y-116609952D01*
X136662438Y-116609952D02*
X136710057Y-116562333D01*
X136710057Y-116562333D02*
X136805295Y-116514714D01*
X136805295Y-116514714D02*
X136995771Y-116467095D01*
X136995771Y-116467095D02*
X137233866Y-116467095D01*
X137233866Y-116467095D02*
X137424342Y-116514714D01*
X137424342Y-116514714D02*
X137519580Y-116562333D01*
X137519580Y-116562333D02*
X137567200Y-116609952D01*
X137567200Y-116609952D02*
X137614819Y-116705190D01*
X137614819Y-116705190D02*
X137614819Y-116800428D01*
X137614819Y-116800428D02*
X137567200Y-116895666D01*
X137567200Y-116895666D02*
X137519580Y-116943285D01*
X137519580Y-116943285D02*
X137424342Y-116990904D01*
X137424342Y-116990904D02*
X137233866Y-117038523D01*
X137233866Y-117038523D02*
X136995771Y-117038523D01*
X136995771Y-117038523D02*
X136805295Y-116990904D01*
X136805295Y-116990904D02*
X136710057Y-116943285D01*
X136710057Y-116943285D02*
X136662438Y-116895666D01*
X136662438Y-116895666D02*
X136614819Y-116800428D01*
X107783333Y-121104819D02*
X107450000Y-120628628D01*
X107211905Y-121104819D02*
X107211905Y-120104819D01*
X107211905Y-120104819D02*
X107592857Y-120104819D01*
X107592857Y-120104819D02*
X107688095Y-120152438D01*
X107688095Y-120152438D02*
X107735714Y-120200057D01*
X107735714Y-120200057D02*
X107783333Y-120295295D01*
X107783333Y-120295295D02*
X107783333Y-120438152D01*
X107783333Y-120438152D02*
X107735714Y-120533390D01*
X107735714Y-120533390D02*
X107688095Y-120581009D01*
X107688095Y-120581009D02*
X107592857Y-120628628D01*
X107592857Y-120628628D02*
X107211905Y-120628628D01*
X108116667Y-120104819D02*
X108735714Y-120104819D01*
X108735714Y-120104819D02*
X108402381Y-120485771D01*
X108402381Y-120485771D02*
X108545238Y-120485771D01*
X108545238Y-120485771D02*
X108640476Y-120533390D01*
X108640476Y-120533390D02*
X108688095Y-120581009D01*
X108688095Y-120581009D02*
X108735714Y-120676247D01*
X108735714Y-120676247D02*
X108735714Y-120914342D01*
X108735714Y-120914342D02*
X108688095Y-121009580D01*
X108688095Y-121009580D02*
X108640476Y-121057200D01*
X108640476Y-121057200D02*
X108545238Y-121104819D01*
X108545238Y-121104819D02*
X108259524Y-121104819D01*
X108259524Y-121104819D02*
X108164286Y-121057200D01*
X108164286Y-121057200D02*
X108116667Y-121009580D01*
X119673333Y-97154009D02*
X119816190Y-97201628D01*
X119816190Y-97201628D02*
X119863809Y-97249247D01*
X119863809Y-97249247D02*
X119911428Y-97344485D01*
X119911428Y-97344485D02*
X119911428Y-97487342D01*
X119911428Y-97487342D02*
X119863809Y-97582580D01*
X119863809Y-97582580D02*
X119816190Y-97630200D01*
X119816190Y-97630200D02*
X119720952Y-97677819D01*
X119720952Y-97677819D02*
X119340000Y-97677819D01*
X119340000Y-97677819D02*
X119340000Y-96677819D01*
X119340000Y-96677819D02*
X119673333Y-96677819D01*
X119673333Y-96677819D02*
X119768571Y-96725438D01*
X119768571Y-96725438D02*
X119816190Y-96773057D01*
X119816190Y-96773057D02*
X119863809Y-96868295D01*
X119863809Y-96868295D02*
X119863809Y-96963533D01*
X119863809Y-96963533D02*
X119816190Y-97058771D01*
X119816190Y-97058771D02*
X119768571Y-97106390D01*
X119768571Y-97106390D02*
X119673333Y-97154009D01*
X119673333Y-97154009D02*
X119340000Y-97154009D01*
X120340000Y-97677819D02*
X120340000Y-97011152D01*
X120340000Y-97201628D02*
X120387619Y-97106390D01*
X120387619Y-97106390D02*
X120435238Y-97058771D01*
X120435238Y-97058771D02*
X120530476Y-97011152D01*
X120530476Y-97011152D02*
X120625714Y-97011152D01*
X121387619Y-97677819D02*
X121387619Y-96677819D01*
X121387619Y-97630200D02*
X121292381Y-97677819D01*
X121292381Y-97677819D02*
X121101905Y-97677819D01*
X121101905Y-97677819D02*
X121006667Y-97630200D01*
X121006667Y-97630200D02*
X120959048Y-97582580D01*
X120959048Y-97582580D02*
X120911429Y-97487342D01*
X120911429Y-97487342D02*
X120911429Y-97201628D01*
X120911429Y-97201628D02*
X120959048Y-97106390D01*
X120959048Y-97106390D02*
X121006667Y-97058771D01*
X121006667Y-97058771D02*
X121101905Y-97011152D01*
X121101905Y-97011152D02*
X121292381Y-97011152D01*
X121292381Y-97011152D02*
X121387619Y-97058771D01*
X122387619Y-97677819D02*
X121816191Y-97677819D01*
X122101905Y-97677819D02*
X122101905Y-96677819D01*
X122101905Y-96677819D02*
X122006667Y-96820676D01*
X122006667Y-96820676D02*
X121911429Y-96915914D01*
X121911429Y-96915914D02*
X121816191Y-96963533D01*
X123549580Y-114466666D02*
X123597200Y-114514285D01*
X123597200Y-114514285D02*
X123644819Y-114657142D01*
X123644819Y-114657142D02*
X123644819Y-114752380D01*
X123644819Y-114752380D02*
X123597200Y-114895237D01*
X123597200Y-114895237D02*
X123501961Y-114990475D01*
X123501961Y-114990475D02*
X123406723Y-115038094D01*
X123406723Y-115038094D02*
X123216247Y-115085713D01*
X123216247Y-115085713D02*
X123073390Y-115085713D01*
X123073390Y-115085713D02*
X122882914Y-115038094D01*
X122882914Y-115038094D02*
X122787676Y-114990475D01*
X122787676Y-114990475D02*
X122692438Y-114895237D01*
X122692438Y-114895237D02*
X122644819Y-114752380D01*
X122644819Y-114752380D02*
X122644819Y-114657142D01*
X122644819Y-114657142D02*
X122692438Y-114514285D01*
X122692438Y-114514285D02*
X122740057Y-114466666D01*
X122644819Y-113609523D02*
X122644819Y-113799999D01*
X122644819Y-113799999D02*
X122692438Y-113895237D01*
X122692438Y-113895237D02*
X122740057Y-113942856D01*
X122740057Y-113942856D02*
X122882914Y-114038094D01*
X122882914Y-114038094D02*
X123073390Y-114085713D01*
X123073390Y-114085713D02*
X123454342Y-114085713D01*
X123454342Y-114085713D02*
X123549580Y-114038094D01*
X123549580Y-114038094D02*
X123597200Y-113990475D01*
X123597200Y-113990475D02*
X123644819Y-113895237D01*
X123644819Y-113895237D02*
X123644819Y-113704761D01*
X123644819Y-113704761D02*
X123597200Y-113609523D01*
X123597200Y-113609523D02*
X123549580Y-113561904D01*
X123549580Y-113561904D02*
X123454342Y-113514285D01*
X123454342Y-113514285D02*
X123216247Y-113514285D01*
X123216247Y-113514285D02*
X123121009Y-113561904D01*
X123121009Y-113561904D02*
X123073390Y-113609523D01*
X123073390Y-113609523D02*
X123025771Y-113704761D01*
X123025771Y-113704761D02*
X123025771Y-113895237D01*
X123025771Y-113895237D02*
X123073390Y-113990475D01*
X123073390Y-113990475D02*
X123121009Y-114038094D01*
X123121009Y-114038094D02*
X123216247Y-114085713D01*
X122375819Y-123705857D02*
X121899628Y-124039190D01*
X122375819Y-124277285D02*
X121375819Y-124277285D01*
X121375819Y-124277285D02*
X121375819Y-123896333D01*
X121375819Y-123896333D02*
X121423438Y-123801095D01*
X121423438Y-123801095D02*
X121471057Y-123753476D01*
X121471057Y-123753476D02*
X121566295Y-123705857D01*
X121566295Y-123705857D02*
X121709152Y-123705857D01*
X121709152Y-123705857D02*
X121804390Y-123753476D01*
X121804390Y-123753476D02*
X121852009Y-123801095D01*
X121852009Y-123801095D02*
X121899628Y-123896333D01*
X121899628Y-123896333D02*
X121899628Y-124277285D01*
X122375819Y-122753476D02*
X122375819Y-123324904D01*
X122375819Y-123039190D02*
X121375819Y-123039190D01*
X121375819Y-123039190D02*
X121518676Y-123134428D01*
X121518676Y-123134428D02*
X121613914Y-123229666D01*
X121613914Y-123229666D02*
X121661533Y-123324904D01*
X122375819Y-121801095D02*
X122375819Y-122372523D01*
X122375819Y-122086809D02*
X121375819Y-122086809D01*
X121375819Y-122086809D02*
X121518676Y-122182047D01*
X121518676Y-122182047D02*
X121613914Y-122277285D01*
X121613914Y-122277285D02*
X121661533Y-122372523D01*
X107783333Y-126184819D02*
X107450000Y-125708628D01*
X107211905Y-126184819D02*
X107211905Y-125184819D01*
X107211905Y-125184819D02*
X107592857Y-125184819D01*
X107592857Y-125184819D02*
X107688095Y-125232438D01*
X107688095Y-125232438D02*
X107735714Y-125280057D01*
X107735714Y-125280057D02*
X107783333Y-125375295D01*
X107783333Y-125375295D02*
X107783333Y-125518152D01*
X107783333Y-125518152D02*
X107735714Y-125613390D01*
X107735714Y-125613390D02*
X107688095Y-125661009D01*
X107688095Y-125661009D02*
X107592857Y-125708628D01*
X107592857Y-125708628D02*
X107211905Y-125708628D01*
X108116667Y-125184819D02*
X108783333Y-125184819D01*
X108783333Y-125184819D02*
X108354762Y-126184819D01*
X132466824Y-113039053D02*
X131657301Y-113039053D01*
X131657301Y-113039053D02*
X131562063Y-113086672D01*
X131562063Y-113086672D02*
X131514444Y-113134291D01*
X131514444Y-113134291D02*
X131466824Y-113229529D01*
X131466824Y-113229529D02*
X131466824Y-113420005D01*
X131466824Y-113420005D02*
X131514444Y-113515243D01*
X131514444Y-113515243D02*
X131562063Y-113562862D01*
X131562063Y-113562862D02*
X131657301Y-113610481D01*
X131657301Y-113610481D02*
X132466824Y-113610481D01*
X132371586Y-114039053D02*
X132419205Y-114086672D01*
X132419205Y-114086672D02*
X132466824Y-114181910D01*
X132466824Y-114181910D02*
X132466824Y-114420005D01*
X132466824Y-114420005D02*
X132419205Y-114515243D01*
X132419205Y-114515243D02*
X132371586Y-114562862D01*
X132371586Y-114562862D02*
X132276348Y-114610481D01*
X132276348Y-114610481D02*
X132181110Y-114610481D01*
X132181110Y-114610481D02*
X132038253Y-114562862D01*
X132038253Y-114562862D02*
X131466824Y-113991434D01*
X131466824Y-113991434D02*
X131466824Y-114610481D01*
X107783333Y-123644819D02*
X107450000Y-123168628D01*
X107211905Y-123644819D02*
X107211905Y-122644819D01*
X107211905Y-122644819D02*
X107592857Y-122644819D01*
X107592857Y-122644819D02*
X107688095Y-122692438D01*
X107688095Y-122692438D02*
X107735714Y-122740057D01*
X107735714Y-122740057D02*
X107783333Y-122835295D01*
X107783333Y-122835295D02*
X107783333Y-122978152D01*
X107783333Y-122978152D02*
X107735714Y-123073390D01*
X107735714Y-123073390D02*
X107688095Y-123121009D01*
X107688095Y-123121009D02*
X107592857Y-123168628D01*
X107592857Y-123168628D02*
X107211905Y-123168628D01*
X108688095Y-122644819D02*
X108211905Y-122644819D01*
X108211905Y-122644819D02*
X108164286Y-123121009D01*
X108164286Y-123121009D02*
X108211905Y-123073390D01*
X108211905Y-123073390D02*
X108307143Y-123025771D01*
X108307143Y-123025771D02*
X108545238Y-123025771D01*
X108545238Y-123025771D02*
X108640476Y-123073390D01*
X108640476Y-123073390D02*
X108688095Y-123121009D01*
X108688095Y-123121009D02*
X108735714Y-123216247D01*
X108735714Y-123216247D02*
X108735714Y-123454342D01*
X108735714Y-123454342D02*
X108688095Y-123549580D01*
X108688095Y-123549580D02*
X108640476Y-123597200D01*
X108640476Y-123597200D02*
X108545238Y-123644819D01*
X108545238Y-123644819D02*
X108307143Y-123644819D01*
X108307143Y-123644819D02*
X108211905Y-123597200D01*
X108211905Y-123597200D02*
X108164286Y-123549580D01*
X126089580Y-114466666D02*
X126137200Y-114514285D01*
X126137200Y-114514285D02*
X126184819Y-114657142D01*
X126184819Y-114657142D02*
X126184819Y-114752380D01*
X126184819Y-114752380D02*
X126137200Y-114895237D01*
X126137200Y-114895237D02*
X126041961Y-114990475D01*
X126041961Y-114990475D02*
X125946723Y-115038094D01*
X125946723Y-115038094D02*
X125756247Y-115085713D01*
X125756247Y-115085713D02*
X125613390Y-115085713D01*
X125613390Y-115085713D02*
X125422914Y-115038094D01*
X125422914Y-115038094D02*
X125327676Y-114990475D01*
X125327676Y-114990475D02*
X125232438Y-114895237D01*
X125232438Y-114895237D02*
X125184819Y-114752380D01*
X125184819Y-114752380D02*
X125184819Y-114657142D01*
X125184819Y-114657142D02*
X125232438Y-114514285D01*
X125232438Y-114514285D02*
X125280057Y-114466666D01*
X125184819Y-113561904D02*
X125184819Y-114038094D01*
X125184819Y-114038094D02*
X125661009Y-114085713D01*
X125661009Y-114085713D02*
X125613390Y-114038094D01*
X125613390Y-114038094D02*
X125565771Y-113942856D01*
X125565771Y-113942856D02*
X125565771Y-113704761D01*
X125565771Y-113704761D02*
X125613390Y-113609523D01*
X125613390Y-113609523D02*
X125661009Y-113561904D01*
X125661009Y-113561904D02*
X125756247Y-113514285D01*
X125756247Y-113514285D02*
X125994342Y-113514285D01*
X125994342Y-113514285D02*
X126089580Y-113561904D01*
X126089580Y-113561904D02*
X126137200Y-113609523D01*
X126137200Y-113609523D02*
X126184819Y-113704761D01*
X126184819Y-113704761D02*
X126184819Y-113942856D01*
X126184819Y-113942856D02*
X126137200Y-114038094D01*
X126137200Y-114038094D02*
X126089580Y-114085713D01*
X107783333Y-128724819D02*
X107450000Y-128248628D01*
X107211905Y-128724819D02*
X107211905Y-127724819D01*
X107211905Y-127724819D02*
X107592857Y-127724819D01*
X107592857Y-127724819D02*
X107688095Y-127772438D01*
X107688095Y-127772438D02*
X107735714Y-127820057D01*
X107735714Y-127820057D02*
X107783333Y-127915295D01*
X107783333Y-127915295D02*
X107783333Y-128058152D01*
X107783333Y-128058152D02*
X107735714Y-128153390D01*
X107735714Y-128153390D02*
X107688095Y-128201009D01*
X107688095Y-128201009D02*
X107592857Y-128248628D01*
X107592857Y-128248628D02*
X107211905Y-128248628D01*
X108640476Y-128058152D02*
X108640476Y-128724819D01*
X108402381Y-127677200D02*
X108164286Y-128391485D01*
X108164286Y-128391485D02*
X108783333Y-128391485D01*
X116300095Y-121541819D02*
X116300095Y-122351342D01*
X116300095Y-122351342D02*
X116347714Y-122446580D01*
X116347714Y-122446580D02*
X116395333Y-122494200D01*
X116395333Y-122494200D02*
X116490571Y-122541819D01*
X116490571Y-122541819D02*
X116681047Y-122541819D01*
X116681047Y-122541819D02*
X116776285Y-122494200D01*
X116776285Y-122494200D02*
X116823904Y-122446580D01*
X116823904Y-122446580D02*
X116871523Y-122351342D01*
X116871523Y-122351342D02*
X116871523Y-121541819D01*
X117871523Y-122541819D02*
X117300095Y-122541819D01*
X117585809Y-122541819D02*
X117585809Y-121541819D01*
X117585809Y-121541819D02*
X117490571Y-121684676D01*
X117490571Y-121684676D02*
X117395333Y-121779914D01*
X117395333Y-121779914D02*
X117300095Y-121827533D01*
X124914819Y-127166666D02*
X124438628Y-127499999D01*
X124914819Y-127738094D02*
X123914819Y-127738094D01*
X123914819Y-127738094D02*
X123914819Y-127357142D01*
X123914819Y-127357142D02*
X123962438Y-127261904D01*
X123962438Y-127261904D02*
X124010057Y-127214285D01*
X124010057Y-127214285D02*
X124105295Y-127166666D01*
X124105295Y-127166666D02*
X124248152Y-127166666D01*
X124248152Y-127166666D02*
X124343390Y-127214285D01*
X124343390Y-127214285D02*
X124391009Y-127261904D01*
X124391009Y-127261904D02*
X124438628Y-127357142D01*
X124438628Y-127357142D02*
X124438628Y-127738094D01*
X123914819Y-126309523D02*
X123914819Y-126499999D01*
X123914819Y-126499999D02*
X123962438Y-126595237D01*
X123962438Y-126595237D02*
X124010057Y-126642856D01*
X124010057Y-126642856D02*
X124152914Y-126738094D01*
X124152914Y-126738094D02*
X124343390Y-126785713D01*
X124343390Y-126785713D02*
X124724342Y-126785713D01*
X124724342Y-126785713D02*
X124819580Y-126738094D01*
X124819580Y-126738094D02*
X124867200Y-126690475D01*
X124867200Y-126690475D02*
X124914819Y-126595237D01*
X124914819Y-126595237D02*
X124914819Y-126404761D01*
X124914819Y-126404761D02*
X124867200Y-126309523D01*
X124867200Y-126309523D02*
X124819580Y-126261904D01*
X124819580Y-126261904D02*
X124724342Y-126214285D01*
X124724342Y-126214285D02*
X124486247Y-126214285D01*
X124486247Y-126214285D02*
X124391009Y-126261904D01*
X124391009Y-126261904D02*
X124343390Y-126309523D01*
X124343390Y-126309523D02*
X124295771Y-126404761D01*
X124295771Y-126404761D02*
X124295771Y-126595237D01*
X124295771Y-126595237D02*
X124343390Y-126690475D01*
X124343390Y-126690475D02*
X124391009Y-126738094D01*
X124391009Y-126738094D02*
X124486247Y-126785713D01*
X107307142Y-118564819D02*
X106973809Y-118088628D01*
X106735714Y-118564819D02*
X106735714Y-117564819D01*
X106735714Y-117564819D02*
X107116666Y-117564819D01*
X107116666Y-117564819D02*
X107211904Y-117612438D01*
X107211904Y-117612438D02*
X107259523Y-117660057D01*
X107259523Y-117660057D02*
X107307142Y-117755295D01*
X107307142Y-117755295D02*
X107307142Y-117898152D01*
X107307142Y-117898152D02*
X107259523Y-117993390D01*
X107259523Y-117993390D02*
X107211904Y-118041009D01*
X107211904Y-118041009D02*
X107116666Y-118088628D01*
X107116666Y-118088628D02*
X106735714Y-118088628D01*
X108259523Y-118564819D02*
X107688095Y-118564819D01*
X107973809Y-118564819D02*
X107973809Y-117564819D01*
X107973809Y-117564819D02*
X107878571Y-117707676D01*
X107878571Y-117707676D02*
X107783333Y-117802914D01*
X107783333Y-117802914D02*
X107688095Y-117850533D01*
X108640476Y-117660057D02*
X108688095Y-117612438D01*
X108688095Y-117612438D02*
X108783333Y-117564819D01*
X108783333Y-117564819D02*
X109021428Y-117564819D01*
X109021428Y-117564819D02*
X109116666Y-117612438D01*
X109116666Y-117612438D02*
X109164285Y-117660057D01*
X109164285Y-117660057D02*
X109211904Y-117755295D01*
X109211904Y-117755295D02*
X109211904Y-117850533D01*
X109211904Y-117850533D02*
X109164285Y-117993390D01*
X109164285Y-117993390D02*
X108592857Y-118564819D01*
X108592857Y-118564819D02*
X109211904Y-118564819D01*
X117710833Y-130309580D02*
X117663214Y-130357200D01*
X117663214Y-130357200D02*
X117520357Y-130404819D01*
X117520357Y-130404819D02*
X117425119Y-130404819D01*
X117425119Y-130404819D02*
X117282262Y-130357200D01*
X117282262Y-130357200D02*
X117187024Y-130261961D01*
X117187024Y-130261961D02*
X117139405Y-130166723D01*
X117139405Y-130166723D02*
X117091786Y-129976247D01*
X117091786Y-129976247D02*
X117091786Y-129833390D01*
X117091786Y-129833390D02*
X117139405Y-129642914D01*
X117139405Y-129642914D02*
X117187024Y-129547676D01*
X117187024Y-129547676D02*
X117282262Y-129452438D01*
X117282262Y-129452438D02*
X117425119Y-129404819D01*
X117425119Y-129404819D02*
X117520357Y-129404819D01*
X117520357Y-129404819D02*
X117663214Y-129452438D01*
X117663214Y-129452438D02*
X117710833Y-129500057D01*
X118663214Y-130404819D02*
X118091786Y-130404819D01*
X118377500Y-130404819D02*
X118377500Y-129404819D01*
X118377500Y-129404819D02*
X118282262Y-129547676D01*
X118282262Y-129547676D02*
X118187024Y-129642914D01*
X118187024Y-129642914D02*
X118091786Y-129690533D01*
X93265714Y-81449104D02*
X93741904Y-81449104D01*
X93170476Y-81734819D02*
X93503809Y-80734819D01*
X93503809Y-80734819D02*
X93837142Y-81734819D01*
X94694285Y-81734819D02*
X94122857Y-81734819D01*
X94408571Y-81734819D02*
X94408571Y-80734819D01*
X94408571Y-80734819D02*
X94313333Y-80877676D01*
X94313333Y-80877676D02*
X94218095Y-80972914D01*
X94218095Y-80972914D02*
X94122857Y-81020533D01*
D11*
X110287869Y-90310937D02*
X110887869Y-90310937D01*
X110887869Y-90310937D02*
X110587869Y-89630937D01*
X110587869Y-89630937D02*
X110287869Y-90310937D01*
X107417869Y-88280937D02*
X107417869Y-82780937D01*
X136617869Y-88280937D02*
X107417869Y-88280937D01*
X107417869Y-82780937D02*
X108417869Y-82780937D01*
X108417869Y-82780937D02*
X108417869Y-79780937D01*
X135617869Y-82780937D02*
X136617869Y-82780937D01*
X136617869Y-82780937D02*
X136617869Y-88280937D01*
X108417869Y-79780937D02*
X135617869Y-79780937D01*
X135617869Y-79780937D02*
X135617869Y-82780937D01*
X134520000Y-117956064D02*
X134520000Y-117501936D01*
X135990000Y-117956064D02*
X135990000Y-117501936D01*
X111532936Y-119915000D02*
X111987064Y-119915000D01*
X111532936Y-121385000D02*
X111987064Y-121385000D01*
X134240000Y-109777000D02*
X106840000Y-109777000D01*
X134240000Y-82477000D02*
X134240000Y-109777000D01*
X133818000Y-106482000D02*
X110718000Y-106482000D01*
X133818000Y-89882000D02*
X133818000Y-106482000D01*
X110718000Y-106482000D02*
X107632000Y-106482000D01*
X110718000Y-89882000D02*
X133818000Y-89882000D01*
X110718000Y-89882000D02*
X107378000Y-89857000D01*
X107378000Y-106494000D02*
X107632000Y-106482000D01*
X107378000Y-89857000D02*
X107378000Y-106494000D01*
X106840000Y-109777000D02*
X106840000Y-82477000D01*
X106840000Y-82477000D02*
X134240000Y-82477000D01*
X122582000Y-117228252D02*
X122582000Y-116705748D01*
X124052000Y-117228252D02*
X124052000Y-116705748D01*
X122836000Y-123290064D02*
X122836000Y-122835936D01*
X124306000Y-123290064D02*
X124306000Y-122835936D01*
X111532936Y-124995000D02*
X111987064Y-124995000D01*
X111532936Y-126465000D02*
X111987064Y-126465000D01*
D12*
X132257800Y-115011200D02*
X128854200Y-115011200D01*
X128854200Y-115011200D02*
X128854200Y-116025849D01*
X128854200Y-121210151D02*
X128854200Y-122224800D01*
X132257800Y-122224800D02*
X132257800Y-115011200D01*
X128854200Y-122224800D02*
X132257800Y-122224800D01*
D13*
X129961800Y-113233200D02*
G75*
G03*
X129199800Y-113233200I-381000J0D01*
G01*
X129199800Y-113233200D02*
G75*
G03*
X129961800Y-113233200I381000J0D01*
G01*
D11*
X111532936Y-122455000D02*
X111987064Y-122455000D01*
X111532936Y-123925000D02*
X111987064Y-123925000D01*
X125630000Y-117228252D02*
X125630000Y-116705748D01*
X127100000Y-117228252D02*
X127100000Y-116705748D01*
X111532936Y-127535000D02*
X111987064Y-127535000D01*
X111532936Y-129005000D02*
X111987064Y-129005000D01*
X115845000Y-124070000D02*
X117585000Y-124070000D01*
X116285000Y-126890000D02*
X117585000Y-126890000D01*
X121185000Y-127227064D02*
X121185000Y-126772936D01*
X122655000Y-127227064D02*
X122655000Y-126772936D01*
X111987064Y-118718000D02*
X111532936Y-118718000D01*
X111987064Y-117248000D02*
X111532936Y-117248000D01*
X118138752Y-129005000D02*
X117616248Y-129005000D01*
X118138752Y-127535000D02*
X117616248Y-127535000D01*
X82120000Y-89900000D02*
X82120000Y-87900000D01*
X82440000Y-85090000D02*
X82440000Y-130810000D01*
X102870000Y-82440000D02*
X85090000Y-82440000D01*
X102870000Y-133460000D02*
X85090000Y-133460000D01*
X105520000Y-85090000D02*
X105520000Y-130810000D01*
X85090000Y-82440000D02*
G75*
G03*
X82440000Y-85090000I0J-2650000D01*
G01*
X82440000Y-130810000D02*
G75*
G03*
X85090000Y-133460000I2650000J0D01*
G01*
X105520000Y-85090000D02*
G75*
G03*
X102870000Y-82440000I-2650000J0D01*
G01*
X102870000Y-133460000D02*
G75*
G03*
X105520000Y-130810000I0J2650000D01*
G01*
%LPC*%
D14*
X110587869Y-86570937D03*
D15*
X113127869Y-86570937D03*
X115667869Y-86570937D03*
X118207869Y-86570937D03*
X120747869Y-86570937D03*
X123287869Y-86570937D03*
X125827869Y-86570937D03*
X128367869Y-86570937D03*
X130907869Y-86570937D03*
X133447869Y-86570937D03*
X110587869Y-84030937D03*
X113127869Y-84030937D03*
X115667869Y-84030937D03*
X118207869Y-84030937D03*
X120747869Y-84030937D03*
X123287869Y-84030937D03*
X125827869Y-84030937D03*
X128367869Y-84030937D03*
X130907869Y-84030937D03*
X133447869Y-84030937D03*
X110587869Y-81490937D03*
X113127869Y-81490937D03*
X115667869Y-81490937D03*
X118207869Y-81490937D03*
X120747869Y-81490937D03*
X123287869Y-81490937D03*
X125827869Y-81490937D03*
X128367869Y-81490937D03*
X130907869Y-81490937D03*
X133447869Y-81490937D03*
D16*
X135255000Y-118729000D03*
X135255000Y-116729000D03*
D17*
X110760000Y-120650000D03*
X112760000Y-120650000D03*
D18*
X124460000Y-108077000D03*
D19*
X121920000Y-108077000D03*
X119380000Y-108077000D03*
X116840000Y-108077000D03*
D20*
X123317000Y-118004500D03*
X123317000Y-115929500D03*
D16*
X123571000Y-124063000D03*
X123571000Y-122063000D03*
D17*
X110760000Y-125730000D03*
X112760000Y-125730000D03*
D21*
X129580800Y-116713000D03*
X129580800Y-117983000D03*
X129580800Y-119253000D03*
X129580800Y-120523000D03*
D17*
X110760000Y-123190000D03*
X112760000Y-123190000D03*
D20*
X126365000Y-118004500D03*
X126365000Y-115929500D03*
D17*
X110760000Y-128270000D03*
X112760000Y-128270000D03*
D22*
X115760000Y-124730000D03*
X115760000Y-125230000D03*
X115760000Y-125730000D03*
X115760000Y-126230000D03*
X118110000Y-126230000D03*
X118110000Y-125730000D03*
X118110000Y-125230000D03*
X118110000Y-124730000D03*
D23*
X116935000Y-125480000D03*
D16*
X121920000Y-128000000D03*
X121920000Y-126000000D03*
D24*
X112760000Y-117983000D03*
X110760000Y-117983000D03*
D25*
X118915000Y-128270000D03*
X116840000Y-128270000D03*
D26*
X83820000Y-88900000D03*
D27*
X83820000Y-91440000D03*
X83820000Y-93980000D03*
X83820000Y-96520000D03*
X83820000Y-99060000D03*
X83820000Y-101600000D03*
X83820000Y-104140000D03*
X83820000Y-106680000D03*
X83820000Y-109220000D03*
X83820000Y-111760000D03*
X83820000Y-114300000D03*
X83820000Y-116840000D03*
X83820000Y-119380000D03*
X83820000Y-121920000D03*
X83820000Y-124460000D03*
X83820000Y-127000000D03*
X104140000Y-127000000D03*
X104140000Y-124460000D03*
X104140000Y-121920000D03*
X104140000Y-119380000D03*
X104140000Y-116840000D03*
X104140000Y-114300000D03*
X104140000Y-111760000D03*
X104140000Y-109220000D03*
X104140000Y-106680000D03*
X104140000Y-104140000D03*
X104140000Y-101600000D03*
X104140000Y-99060000D03*
%LPD*%
M02*
