%TF.GenerationSoftware,KiCad,Pcbnew,7.0.11+1*%
%TF.CreationDate,2024-06-02T11:35:41+02:00*%
%TF.ProjectId,prg_pcb,7072675f-7063-4622-9e6b-696361645f70,rev?*%
%TF.SameCoordinates,Original*%
%TF.FileFunction,Drillmap*%
%TF.FilePolarity,Positive*%
%FSLAX45Y45*%
G04 Gerber Fmt 4.5, Leading zero omitted, Abs format (unit mm)*
G04 Created by KiCad (PCBNEW 7.0.11+1) date 2024-06-02 11:35:41*
%MOMM*%
%LPD*%
G01*
G04 APERTURE LIST*
%ADD10C,0.100000*%
%ADD11C,0.200000*%
G04 APERTURE END LIST*
D10*
X7620000Y-7620000D02*
X14084300Y-7620000D01*
X14084300Y-13716000D01*
X7620000Y-13716000D01*
X7620000Y-7620000D01*
D11*
X7875777Y-14032484D02*
X7875777Y-13832484D01*
X7875777Y-13832484D02*
X7923396Y-13832484D01*
X7923396Y-13832484D02*
X7951967Y-13842008D01*
X7951967Y-13842008D02*
X7971015Y-13861055D01*
X7971015Y-13861055D02*
X7980539Y-13880103D01*
X7980539Y-13880103D02*
X7990062Y-13918198D01*
X7990062Y-13918198D02*
X7990062Y-13946769D01*
X7990062Y-13946769D02*
X7980539Y-13984865D01*
X7980539Y-13984865D02*
X7971015Y-14003912D01*
X7971015Y-14003912D02*
X7951967Y-14022960D01*
X7951967Y-14022960D02*
X7923396Y-14032484D01*
X7923396Y-14032484D02*
X7875777Y-14032484D01*
X8075777Y-14032484D02*
X8075777Y-13899150D01*
X8075777Y-13937246D02*
X8085301Y-13918198D01*
X8085301Y-13918198D02*
X8094824Y-13908674D01*
X8094824Y-13908674D02*
X8113872Y-13899150D01*
X8113872Y-13899150D02*
X8132920Y-13899150D01*
X8199586Y-14032484D02*
X8199586Y-13899150D01*
X8199586Y-13832484D02*
X8190062Y-13842008D01*
X8190062Y-13842008D02*
X8199586Y-13851531D01*
X8199586Y-13851531D02*
X8209110Y-13842008D01*
X8209110Y-13842008D02*
X8199586Y-13832484D01*
X8199586Y-13832484D02*
X8199586Y-13851531D01*
X8323396Y-14032484D02*
X8304348Y-14022960D01*
X8304348Y-14022960D02*
X8294824Y-14003912D01*
X8294824Y-14003912D02*
X8294824Y-13832484D01*
X8428158Y-14032484D02*
X8409110Y-14022960D01*
X8409110Y-14022960D02*
X8399586Y-14003912D01*
X8399586Y-14003912D02*
X8399586Y-13832484D01*
X8656729Y-14032484D02*
X8656729Y-13832484D01*
X8656729Y-13832484D02*
X8723396Y-13975341D01*
X8723396Y-13975341D02*
X8790063Y-13832484D01*
X8790063Y-13832484D02*
X8790063Y-14032484D01*
X8971015Y-14032484D02*
X8971015Y-13927722D01*
X8971015Y-13927722D02*
X8961491Y-13908674D01*
X8961491Y-13908674D02*
X8942444Y-13899150D01*
X8942444Y-13899150D02*
X8904348Y-13899150D01*
X8904348Y-13899150D02*
X8885301Y-13908674D01*
X8971015Y-14022960D02*
X8951967Y-14032484D01*
X8951967Y-14032484D02*
X8904348Y-14032484D01*
X8904348Y-14032484D02*
X8885301Y-14022960D01*
X8885301Y-14022960D02*
X8875777Y-14003912D01*
X8875777Y-14003912D02*
X8875777Y-13984865D01*
X8875777Y-13984865D02*
X8885301Y-13965817D01*
X8885301Y-13965817D02*
X8904348Y-13956293D01*
X8904348Y-13956293D02*
X8951967Y-13956293D01*
X8951967Y-13956293D02*
X8971015Y-13946769D01*
X9066253Y-13899150D02*
X9066253Y-14099150D01*
X9066253Y-13908674D02*
X9085301Y-13899150D01*
X9085301Y-13899150D02*
X9123396Y-13899150D01*
X9123396Y-13899150D02*
X9142444Y-13908674D01*
X9142444Y-13908674D02*
X9151967Y-13918198D01*
X9151967Y-13918198D02*
X9161491Y-13937246D01*
X9161491Y-13937246D02*
X9161491Y-13994388D01*
X9161491Y-13994388D02*
X9151967Y-14013436D01*
X9151967Y-14013436D02*
X9142444Y-14022960D01*
X9142444Y-14022960D02*
X9123396Y-14032484D01*
X9123396Y-14032484D02*
X9085301Y-14032484D01*
X9085301Y-14032484D02*
X9066253Y-14022960D01*
X9247205Y-14013436D02*
X9256729Y-14022960D01*
X9256729Y-14022960D02*
X9247205Y-14032484D01*
X9247205Y-14032484D02*
X9237682Y-14022960D01*
X9237682Y-14022960D02*
X9247205Y-14013436D01*
X9247205Y-14013436D02*
X9247205Y-14032484D01*
X9247205Y-13908674D02*
X9256729Y-13918198D01*
X9256729Y-13918198D02*
X9247205Y-13927722D01*
X9247205Y-13927722D02*
X9237682Y-13918198D01*
X9237682Y-13918198D02*
X9247205Y-13908674D01*
X9247205Y-13908674D02*
X9247205Y-13927722D01*
M02*
