M48
; DRILL file {KiCad 7.0.11+1} date Sun 02 Jun 2024 11:35:42 CEST
; FORMAT={-:-/ absolute / metric / decimal}
; #@! TF.CreationDate,2024-06-02T11:35:42+02:00
; #@! TF.GenerationSoftware,Kicad,Pcbnew,7.0.11+1
; #@! TF.FileFunction,Plated,1,2,PTH
FMAT,2
METRIC
; #@! TA.AperFunction,Plated,PTH,ViaDrill
T1C0.300
; #@! TA.AperFunction,Plated,PTH,ViaDrill
T2C0.400
; #@! TA.AperFunction,Plated,PTH,ComponentDrill
T3C0.800
; #@! TA.AperFunction,Plated,PTH,ComponentDrill
T4C1.000
%
G90
G05
T1
X90.9Y-133.5
X92.6Y-108.1
X102.2Y-83.3
X113.0Y-112.7
X116.6Y-120.2
X122.2Y-93.1
X136.5Y-92.6
T2
X110.49Y-120.65
X110.49Y-128.27
X112.776Y-120.65
X115.062Y-126.873
X116.84Y-128.27
X129.54Y-120.523
X129.581Y-119.253
X135.255Y-116.713
T3
X83.82Y-88.9
X83.82Y-91.44
X83.82Y-93.98
X83.82Y-96.52
X83.82Y-99.06
X83.82Y-101.6
X83.82Y-104.14
X83.82Y-106.68
X83.82Y-109.22
X83.82Y-111.76
X83.82Y-114.3
X83.82Y-116.84
X83.82Y-119.38
X83.82Y-121.92
X83.82Y-124.46
X83.82Y-127.0
X104.14Y-99.06
X104.14Y-101.6
X104.14Y-104.14
X104.14Y-106.68
X104.14Y-109.22
X104.14Y-111.76
X104.14Y-114.3
X104.14Y-116.84
X104.14Y-119.38
X104.14Y-121.92
X104.14Y-124.46
X104.14Y-127.0
T4
X110.588Y-81.491
X110.588Y-84.031
X110.588Y-86.571
X113.128Y-81.491
X113.128Y-84.031
X113.128Y-86.571
X115.668Y-81.491
X115.668Y-84.031
X115.668Y-86.571
X116.84Y-108.077
X118.208Y-81.491
X118.208Y-84.031
X118.208Y-86.571
X119.38Y-108.077
X120.748Y-81.491
X120.748Y-84.031
X120.748Y-86.571
X121.92Y-108.077
X123.288Y-81.491
X123.288Y-84.031
X123.288Y-86.571
X124.46Y-108.077
X125.828Y-81.491
X125.828Y-84.031
X125.828Y-86.571
X128.368Y-81.491
X128.368Y-84.031
X128.368Y-86.571
X130.908Y-81.491
X130.908Y-84.031
X130.908Y-86.571
X133.448Y-81.491
X133.448Y-84.031
X133.448Y-86.571
M30
