G04 #@! TF.GenerationSoftware,KiCad,Pcbnew,7.0.11+1*
G04 #@! TF.CreationDate,2024-06-02T11:35:51+02:00*
G04 #@! TF.ProjectId,prg_pcb,7072675f-7063-4622-9e6b-696361645f70,rev?*
G04 #@! TF.SameCoordinates,Original*
G04 #@! TF.FileFunction,Legend,Bot*
G04 #@! TF.FilePolarity,Positive*
%FSLAX46Y46*%
G04 Gerber Fmt 4.6, Leading zero omitted, Abs format (unit mm)*
G04 Created by KiCad (PCBNEW 7.0.11+1) date 2024-06-02 11:35:51*
%MOMM*%
%LPD*%
G01*
G04 APERTURE LIST*
G04 Aperture macros list*
%AMRoundRect*
0 Rectangle with rounded corners*
0 $1 Rounding radius*
0 $2 $3 $4 $5 $6 $7 $8 $9 X,Y pos of 4 corners*
0 Add a 4 corners polygon primitive as box body*
4,1,4,$2,$3,$4,$5,$6,$7,$8,$9,$2,$3,0*
0 Add four circle primitives for the rounded corners*
1,1,$1+$1,$2,$3*
1,1,$1+$1,$4,$5*
1,1,$1+$1,$6,$7*
1,1,$1+$1,$8,$9*
0 Add four rect primitives between the rounded corners*
20,1,$1+$1,$2,$3,$4,$5,0*
20,1,$1+$1,$4,$5,$6,$7,0*
20,1,$1+$1,$6,$7,$8,$9,0*
20,1,$1+$1,$8,$9,$2,$3,0*%
G04 Aperture macros list end*
%ADD10C,0.508000*%
%ADD11RoundRect,0.249999X0.525001X-0.525001X0.525001X0.525001X-0.525001X0.525001X-0.525001X-0.525001X0*%
%ADD12C,1.550000*%
%ADD13R,1.600000X2.000000*%
%ADD14O,1.600000X2.000000*%
%ADD15R,1.600000X1.600000*%
%ADD16C,1.600000*%
G04 APERTURE END LIST*
D10*
X129961800Y-113233200D02*
G75*
G03*
X129199800Y-113233200I-381000J0D01*
G01*
X129199800Y-113233200D02*
G75*
G03*
X129961800Y-113233200I381000J0D01*
G01*
%LPC*%
D11*
X110587869Y-86570937D03*
D12*
X113127869Y-86570937D03*
X115667869Y-86570937D03*
X118207869Y-86570937D03*
X120747869Y-86570937D03*
X123287869Y-86570937D03*
X125827869Y-86570937D03*
X128367869Y-86570937D03*
X130907869Y-86570937D03*
X133447869Y-86570937D03*
X110587869Y-84030937D03*
X113127869Y-84030937D03*
X115667869Y-84030937D03*
X118207869Y-84030937D03*
X120747869Y-84030937D03*
X123287869Y-84030937D03*
X125827869Y-84030937D03*
X128367869Y-84030937D03*
X130907869Y-84030937D03*
X133447869Y-84030937D03*
X110587869Y-81490937D03*
X113127869Y-81490937D03*
X115667869Y-81490937D03*
X118207869Y-81490937D03*
X120747869Y-81490937D03*
X123287869Y-81490937D03*
X125827869Y-81490937D03*
X128367869Y-81490937D03*
X130907869Y-81490937D03*
X133447869Y-81490937D03*
D13*
X124460000Y-108077000D03*
D14*
X121920000Y-108077000D03*
X119380000Y-108077000D03*
X116840000Y-108077000D03*
D15*
X83820000Y-88900000D03*
D16*
X83820000Y-91440000D03*
X83820000Y-93980000D03*
X83820000Y-96520000D03*
X83820000Y-99060000D03*
X83820000Y-101600000D03*
X83820000Y-104140000D03*
X83820000Y-106680000D03*
X83820000Y-109220000D03*
X83820000Y-111760000D03*
X83820000Y-114300000D03*
X83820000Y-116840000D03*
X83820000Y-119380000D03*
X83820000Y-121920000D03*
X83820000Y-124460000D03*
X83820000Y-127000000D03*
X104140000Y-127000000D03*
X104140000Y-124460000D03*
X104140000Y-121920000D03*
X104140000Y-119380000D03*
X104140000Y-116840000D03*
X104140000Y-114300000D03*
X104140000Y-111760000D03*
X104140000Y-109220000D03*
X104140000Y-106680000D03*
X104140000Y-104140000D03*
X104140000Y-101600000D03*
X104140000Y-99060000D03*
%LPD*%
M02*
